# xmcd
#
# Track frame offsets:
#  150
#  13117
#  28208
#  39046
#  51764
#  65229
#  81908
#  93713
#  105805
#  121064
#  138275
#  162791
#
# Disc length: 3087 seconds
#
# Revision: 0
# Processed by: cddbd v1.5.2PL0 Copyright (c) Steve Scherf et al.
# Submitted via: Collectorz.com_Music_Collector 6.9
#
DISCID=930c0d0c
DTITLE=Белфаст - Хорошая, Плохой, Злой, Бухой
DYEAR=2009
DGENRE=
TTITLE0=По хорошему я не уйду
TTITLE1=Она придет (надев вуаль)
TTITLE2=Погоняя стадо
TTITLE3=Джесси Джеймс
TTITLE4=Полоски
TTITLE5=Всадники в небесах
TTITLE6=Всюду побывал я
TTITLE7=Конфедерат - повстанец
TTITLE8=Герой кантона
TTITLE9=Хорошая, Плохой, Злой, Бухой
TTITLE10=Хорошо бы Нэшвилл сжечь...
TTITLE11=Data track
EXTD=
EXTT0=
EXTT1=
EXTT2=
EXTT3=
EXTT4=
EXTT5=
EXTT6=
EXTT7=
EXTT8=
EXTT9=
EXTT10=
EXTT11=
PLAYORDER=
